# xmcd CD database file
#
# Track frame offsets:
#	151
#	15282
#	28442
#	41076
#	54518
#	70364
#	90736
#	104663
#	118915
#	133610
#	146718
#	161312
#	175923
#	190091
#	205596
#	220561
#	235708
#	249689
#	262139
#	277544
#	292329
#	310590
#	329717
#	339527
#
# Disc length: 4678 seconds
#
# Revision: 0
# Processed by: cddbd v1.5.1PL2 Copyright (c) Steve Scherf et al.
# Submitted via: CDex 1.51
#
DISCID=6d124418
DTITLE=Frank Sinatra - The Frank Sinatra Story
DYEAR=1999
DGENRE=Jazz
TTITLE0=From the Bottom of my Heart
TTITLE1=It's Funny to Everyone By Me
TTITLE2=On A Little Street in Singapore
TTITLE3=All or Nothing At All
TTITLE4=Shake Down the Stars
TTITLE5=Without A Song
TTITLE6=I'll Be Seeing You
TTITLE7=I'll Never Smile Again
TTITLE8=Fools Rush In
TTITLE9=I Think Of You
TTITLE10=Oh Look At Me Now
TTITLE11=Stardust
TTITLE12=Night And Day
TTITLE13=The Song Is You
TTITLE14=Close To You
TTITLE15=People Will Say We're In Love
TTITLE16=If You Are But A Dream
TTITLE17=Saturday Night - Is The Lonliest Night Of The Week
TTITLE18=White Christmas
TTITLE19=I Fall In Love Too Easily
TTITLE20=Old Man River
TTITLE21=Stormy Weather
TTITLE22=Embraceable You
TTITLE23=She's Funny That Way
EXTD=YEAR: 1999
EXTT0=
EXTT1=
EXTT2=
EXTT3=
EXTT4=
EXTT5=
EXTT6=
EXTT7=
EXTT8=
EXTT9=
EXTT10=
EXTT11=
EXTT12=
EXTT13=
EXTT14=
EXTT15=
EXTT16=
EXTT17=
EXTT18=
EXTT19=
EXTT20=
EXTT21=
EXTT22=
EXTT23=
PLAYORDER=
